<svg xmlns="http://www.w3.org/2000/svg" width="1406" height="289" viewBox="0 0 1406 289" fill="none"><path d="M83.5217 154.631L82.6376 155.098L83.5217 154.631ZM288.396 187.736L289.087 188.458L288.396 187.736ZM430.695 51.3742L430.003 50.6522L430.695 51.3742ZM613.503 54.2604L612.788 54.9602L613.503 54.2604ZM715.215 158.084L714.501 158.783L715.215 158.084ZM877.233 177.189L876.701 176.342L877.233 177.189ZM1062.59 60.7416L1063.12 61.5883L1062.59 60.7416ZM1230.03 85.7263L1230.78 85.0718L1230.78 85.0718L1230.03 85.7263ZM1405.53 288.416L1403.34 277.077L1394.62 284.636L1405.53 288.416ZM1.64189 1.88358L4.53459 7.35554L6.30273 6.42083L3.41002 0.948866L1.64189 1.88358ZM10.32 18.2995L16.1054 29.2434L17.8735 28.3087L12.0881 17.3647L10.32 18.2995ZM21.8908 40.1873L27.6762 51.1312L29.4444 50.1965L23.659 39.2526L21.8908 40.1873ZM33.4616 62.0751L39.247 73.0191L41.0152 72.0843L35.2298 61.1404L33.4616 62.0751ZM45.0325 83.963L50.8179 94.9069L52.586 93.9722L46.8006 83.0283L45.0325 83.963ZM56.6033 105.851L62.3887 116.795L64.1568 115.86L58.3714 104.916L56.6033 105.851ZM68.1741 127.739L73.9595 138.683L75.7276 137.748L69.9422 126.804L68.1741 127.739ZM79.7449 149.626L82.6376 155.098L84.4057 154.164L81.5131 148.692L79.7449 149.626ZM82.6376 155.098C83.5888 156.898 84.5741 158.664 85.5922 160.397L87.3167 159.384C86.3137 157.677 85.3429 155.937 84.4057 154.164L82.6376 155.098ZM92.191 170.546C94.5664 173.857 97.0714 177.024 99.6942 180.045L101.204 178.734C98.622 175.759 96.1554 172.641 93.8161 169.38L92.191 170.546ZM108.053 188.808C110.991 191.612 114.04 194.259 117.19 196.745L118.429 195.176C115.328 192.727 112.326 190.122 109.434 187.362L108.053 188.808ZM127.038 203.799C130.438 206.001 133.929 208.035 137.495 209.9L138.422 208.127C134.91 206.292 131.473 204.288 128.125 202.12L127.038 203.799ZM148.473 215.006C152.214 216.541 156.019 217.9 159.875 219.081L160.461 217.169C156.664 216.006 152.916 214.667 149.232 213.156L148.473 215.006ZM171.6 222.095C175.552 222.921 179.541 223.565 183.552 224.027L183.78 222.04C179.83 221.585 175.901 220.95 172.009 220.137L171.6 222.095ZM195.63 224.859C199.661 224.952 203.701 224.86 207.735 224.582L207.597 222.587C203.624 222.861 199.646 222.951 195.676 222.859L195.63 224.859ZM219.762 223.193C223.734 222.547 227.688 221.715 231.609 220.696L231.105 218.76C227.245 219.764 223.352 220.583 219.441 221.219L219.762 223.193ZM243.177 217.103C246.949 215.735 250.677 214.184 254.348 212.448L253.493 210.64C249.879 212.349 246.209 213.876 242.495 215.223L243.177 217.103ZM265.042 206.763C268.483 204.722 271.858 202.505 275.155 200.11L273.98 198.492C270.733 200.85 267.409 203.033 264.022 205.043L265.042 206.763ZM284.614 192.557C286.127 191.232 287.618 189.866 289.087 188.458L287.704 187.014C286.256 188.401 284.786 189.747 283.297 191.052L284.614 192.557ZM289.087 188.458L293.534 184.197L292.151 182.753L287.704 187.014L289.087 188.458ZM302.428 175.674L311.322 167.151L309.938 165.707L301.044 174.23L302.428 175.674ZM320.215 158.629L329.109 150.106L327.725 148.662L318.832 157.185L320.215 158.629ZM338.003 141.584L346.896 133.061L345.513 131.617L336.619 140.14L338.003 141.584ZM355.79 124.538L364.684 116.016L363.3 114.572L354.406 123.094L355.79 124.538ZM373.578 107.493L382.471 98.9706L381.087 97.5266L372.194 106.049L373.578 107.493ZM391.365 90.448L400.259 81.9254L398.875 80.4813L389.981 89.0039L391.365 90.448ZM409.152 73.4028L418.046 64.8801L416.662 63.4361L407.769 71.9587L409.152 73.4028ZM426.94 56.3575L431.387 52.0962L430.003 50.6522L425.556 54.9135L426.94 56.3575ZM431.387 52.0962C432.909 50.6375 434.458 49.2234 436.031 47.854L434.718 46.3453C433.121 47.7357 431.548 49.1713 430.003 50.6522L431.387 52.0962ZM445.905 40.0686C449.346 37.6173 452.878 35.3556 456.489 33.2834L455.493 31.5488C451.826 33.6535 448.239 35.9504 444.745 38.4397L445.905 40.0686ZM467.685 27.5681C471.525 25.8402 475.431 24.3103 479.388 22.978L478.75 21.0826C474.731 22.4356 470.764 23.9894 466.864 25.7443L467.685 27.5681ZM491.484 19.5539C495.577 18.6084 499.707 17.8652 503.857 17.3239L503.598 15.3407C499.384 15.8903 495.19 16.6451 491.034 17.6053L491.484 19.5539ZM516.388 16.3045C520.579 16.1676 524.775 16.2338 528.959 16.503L529.088 14.5071C524.839 14.2338 520.578 14.1665 516.323 14.3056L516.388 16.3045ZM541.452 17.9174C545.583 18.5895 549.687 19.4627 553.748 20.537L554.259 18.6035C550.135 17.5126 545.968 16.6258 541.773 15.9434L541.452 17.9174ZM565.73 24.3412C569.643 25.7977 573.499 27.4502 577.282 29.2984L578.16 27.5014C574.318 25.6243 570.402 23.946 566.428 22.4668L565.73 24.3412ZM588.293 35.3643C591.836 37.5495 595.295 39.9215 598.657 42.4802L599.868 40.8888C596.454 38.2904 592.941 35.8814 589.343 33.662L588.293 35.3643ZM608.28 50.5734C609.809 51.9918 611.313 53.4541 612.788 54.9602L614.217 53.5606C612.719 52.0316 611.193 50.5471 609.64 49.1069L608.28 50.5734ZM612.788 54.9602L617.026 59.2862L618.455 57.8865L614.217 53.5606L612.788 54.9602ZM625.502 67.9381L633.978 76.59L635.407 75.1904L626.931 66.5385L625.502 67.9381ZM642.454 85.242L650.93 93.8939L652.359 92.4943L643.883 83.8424L642.454 85.242ZM659.406 102.546L667.882 111.198L669.311 109.798L660.835 101.146L659.406 102.546ZM676.358 119.85L684.834 128.502L686.263 127.102L677.787 118.45L676.358 119.85ZM693.31 137.154L701.787 145.806L703.215 144.406L694.739 135.754L693.31 137.154ZM710.263 154.457L714.501 158.783L715.929 157.384L711.691 153.058L710.263 154.457ZM714.501 158.783C715.988 160.302 717.505 161.778 719.051 163.21L720.41 161.744C718.889 160.333 717.394 158.879 715.929 157.384L714.501 158.783ZM728.763 171.379C732.15 173.959 735.64 176.356 739.219 178.568L740.271 176.867C736.747 174.688 733.31 172.328 729.975 169.788L728.763 171.379ZM750.324 184.706C754.135 186.577 758.023 188.255 761.973 189.738L762.676 187.865C758.787 186.405 754.958 184.753 751.205 182.911L750.324 184.706ZM774.055 193.618C778.146 194.716 782.284 195.615 786.454 196.312L786.784 194.34C782.677 193.653 778.602 192.768 774.573 191.686L774.055 193.618ZM799.055 197.798C803.273 198.09 807.507 198.178 811.741 198.062L811.686 196.062C807.516 196.177 803.347 196.09 799.194 195.803L799.055 197.798ZM824.394 197.098C828.581 196.575 832.752 195.847 836.894 194.914L836.455 192.963C832.376 193.882 828.268 194.598 824.146 195.114L824.394 197.098ZM849.122 191.528C853.117 190.208 857.069 188.689 860.964 186.968L860.155 185.139C856.321 186.834 852.429 188.33 848.495 189.628L849.122 191.528ZM872.31 181.283C874.146 180.249 875.965 179.166 877.765 178.035L876.701 176.342C874.928 177.456 873.137 178.522 871.328 179.54L872.31 181.283ZM877.765 178.035L882.914 174.801L881.85 173.107L876.701 176.342L877.765 178.035ZM893.211 168.332L903.509 161.862L902.445 160.169L892.147 166.638L893.211 168.332ZM913.807 155.393L924.105 148.924L923.041 147.23L912.743 153.699L913.807 155.393ZM934.402 142.454L944.7 135.985L943.636 134.292L933.338 140.761L934.402 142.454ZM954.998 129.516L965.296 123.047L964.232 121.353L953.934 127.822L954.998 129.516ZM975.593 116.577L985.891 110.108L984.827 108.414L974.529 114.884L975.593 116.577ZM996.189 103.639L1006.49 97.1694L1005.42 95.4759L995.125 101.945L996.189 103.639ZM1016.78 90.7001L1027.08 84.2308L1026.02 82.5373L1015.72 89.0066L1016.78 90.7001ZM1037.38 77.7616L1047.68 71.2923L1046.61 69.5987L1036.32 76.068L1037.38 77.7616ZM1057.98 64.823L1063.12 61.5883L1062.06 59.8948L1056.91 63.1295L1057.98 64.823ZM1063.12 61.5883C1064.75 60.5699 1066.38 59.5916 1068.03 58.6533L1067.04 56.9147C1065.37 57.8675 1063.71 58.8608 1062.06 59.8948L1063.12 61.5883ZM1078.21 53.446C1081.7 51.8517 1085.23 50.424 1088.8 49.1612L1088.14 47.2755C1084.51 48.558 1080.92 50.008 1077.38 51.627L1078.21 53.446ZM1099.74 45.8357C1103.45 44.8868 1107.18 44.1075 1110.93 43.4961L1110.61 41.5222C1106.8 42.1431 1103.01 42.9345 1099.24 43.8982L1099.74 45.8357ZM1122.28 42.159C1126.09 41.8809 1129.9 41.7726 1133.7 41.8321L1133.74 39.8324C1129.87 39.7719 1126 39.8819 1122.13 40.1643L1122.28 42.159ZM1145.11 42.5156C1148.91 42.9113 1152.68 43.4742 1156.42 44.2026L1156.8 42.2395C1153 41.4998 1149.17 40.9282 1145.32 40.5264L1145.11 42.5156ZM1167.53 46.88C1171.19 47.934 1174.8 49.1507 1178.36 50.5283L1179.09 48.663C1175.47 47.264 1171.8 46.0285 1168.09 44.9582L1167.53 46.88ZM1188.83 55.1211C1192.24 56.8003 1195.58 58.6354 1198.85 60.6249L1199.89 58.9166C1196.57 56.8962 1193.18 55.0324 1189.72 53.3271L1188.83 55.1211ZM1208.34 66.9979C1211.38 69.2487 1214.35 71.6465 1217.22 74.1897L1218.55 72.6926C1215.63 70.1099 1212.62 67.6749 1209.52 65.389L1208.34 66.9979ZM1225.43 82.1411C1226.74 83.5202 1228.02 84.9335 1229.27 86.3809L1230.78 85.0718C1229.51 83.6023 1228.21 82.1673 1226.89 80.7669L1225.43 82.1411ZM1229.27 86.3809L1233.26 90.9875L1234.77 89.6784L1230.78 85.0718L1229.27 86.3809ZM1241.24 100.201L1249.21 109.414L1250.73 108.105L1242.75 98.8915L1241.24 100.201ZM1257.19 118.627L1265.17 127.84L1266.68 126.531L1258.7 117.318L1257.19 118.627ZM1273.15 137.053L1281.12 146.267L1282.63 144.957L1274.66 135.744L1273.15 137.053ZM1289.1 155.48L1297.08 164.693L1298.59 163.384L1290.61 154.171L1289.1 155.48ZM1305.05 173.906L1313.03 183.119L1314.54 181.81L1306.57 172.597L1305.05 173.906ZM1321.01 192.332L1328.99 201.546L1330.5 200.236L1322.52 191.023L1321.01 192.332ZM1336.96 210.759L1344.94 219.972L1346.45 218.663L1338.48 209.45L1336.96 210.759ZM1352.92 229.185L1360.9 238.398L1362.41 237.089L1354.43 227.876L1352.92 229.185ZM1368.87 247.612L1376.85 256.825L1378.36 255.516L1370.38 246.302L1368.87 247.612ZM1384.83 266.038L1392.8 275.251L1394.32 273.942L1386.34 264.729L1384.83 266.038ZM83.5217 154.631L81.7535 155.566L83.5217 154.631ZM288.396 187.736L289.779 189.18L288.396 187.736ZM430.695 51.3742L429.311 49.9302L430.695 51.3742ZM613.503 54.2604L612.074 55.66L613.503 54.2604ZM715.215 158.084L713.786 159.483L715.215 158.084ZM877.233 177.189L876.169 175.495L877.233 177.189ZM1062.59 60.7416L1063.66 62.4351L1063.66 62.4351L1062.59 60.7416ZM1230.03 85.7263L1231.54 84.4172L1230.03 85.7263ZM1405.53 288.416L1401.16 265.738L1383.7 280.855L1405.53 288.416ZM0.757816 2.35093L3.65052 7.82289L7.1868 5.95347L4.29409 0.48151L0.757816 2.35093ZM9.43593 18.7668L15.2213 29.7107L18.7576 27.8413L12.9722 16.8974L9.43593 18.7668ZM21.0067 40.6546L26.7922 51.5986L30.3284 49.7291L24.543 38.7852L21.0067 40.6546ZM32.5776 62.5425L38.363 73.4864L41.8993 71.617L36.1138 60.6731L32.5776 62.5425ZM44.1484 84.4303L49.9338 95.3742L53.4701 93.5048L47.6847 82.5609L44.1484 84.4303ZM55.7192 106.318L61.5046 117.262L65.0409 115.393L59.2555 104.449L55.7192 106.318ZM67.29 128.206L73.0754 139.15L76.6117 137.28L70.8263 126.337L67.29 128.206ZM78.8608 150.094L81.7535 155.566L85.2898 153.696L82.3971 148.224L78.8608 150.094ZM81.7535 155.566C82.7117 157.378 83.7042 159.158 84.73 160.904L88.1789 158.878C87.1835 157.183 86.22 155.456 85.2898 153.696L81.7535 155.566ZM91.3784 171.129C93.7719 174.465 96.2961 177.656 98.9391 180.7L101.959 178.078C99.3973 175.127 96.9498 172.033 94.6286 168.797L91.3784 171.129ZM107.363 189.532C110.323 192.357 113.396 195.024 116.57 197.53L119.049 194.391C115.973 191.962 112.994 189.377 110.125 186.638L107.363 189.532ZM126.494 204.638C129.921 206.857 133.438 208.907 137.032 210.786L138.885 207.241C135.4 205.42 131.991 203.432 128.669 201.281L126.494 204.638ZM148.093 215.932C151.863 217.478 155.697 218.847 159.582 220.037L160.754 216.213C156.986 215.058 153.267 213.73 149.611 212.231L148.093 215.932ZM171.395 223.074C175.378 223.906 179.396 224.555 183.438 225.02L183.895 221.046C179.974 220.595 176.076 219.965 172.213 219.159L171.395 223.074ZM195.607 225.859C199.668 225.952 203.739 225.86 207.804 225.58L207.528 221.589C203.586 221.861 199.639 221.951 195.699 221.86L195.607 225.859ZM219.922 224.18C223.925 223.529 227.909 222.691 231.86 221.664L230.854 217.792C227.023 218.788 223.161 219.601 219.28 220.232L219.922 224.18ZM243.518 218.043C247.32 216.664 251.076 215.101 254.776 213.352L253.066 209.736C249.48 211.431 245.839 212.946 242.154 214.283L243.518 218.043ZM265.552 207.623C269.019 205.566 272.42 203.332 275.743 200.919L273.392 197.683C270.17 200.023 266.873 202.189 263.511 204.183L265.552 207.623ZM285.273 193.309C286.797 191.975 288.299 190.598 289.779 189.18L287.012 186.292C285.575 187.669 284.116 189.005 282.638 190.3L285.273 193.309ZM289.779 189.18L294.226 184.919L291.459 182.031L287.012 186.292L289.779 189.18ZM303.12 176.396L312.014 167.873L309.246 164.985L300.352 173.508L303.12 176.396ZM320.907 159.351L329.801 150.828L327.033 147.94L318.14 156.463L320.907 159.351ZM338.695 142.306L347.588 133.783L344.821 130.895L335.927 139.418L338.695 142.306ZM356.482 125.26L365.376 116.738L362.608 113.85L353.715 122.372L356.482 125.26ZM374.269 108.215L383.163 99.6926L380.396 96.8046L371.502 105.327L374.269 108.215ZM392.057 91.17L400.951 82.6474L398.183 79.7593L389.289 88.2819L392.057 91.17ZM409.844 74.1248L418.738 65.6022L415.97 62.7141L407.077 71.2367L409.844 74.1248ZM427.632 57.0796L432.078 52.8182L429.311 49.9302L424.864 54.1915L427.632 57.0796ZM432.078 52.8182C433.589 51.3706 435.126 49.9673 436.688 48.6084L434.062 45.5909C432.452 46.9918 430.868 48.4382 429.311 49.9302L432.078 52.8182ZM446.485 40.883C449.899 38.4508 453.404 36.2067 456.986 34.1506L454.995 30.6815C451.3 32.8024 447.685 35.1169 444.164 37.6253L446.485 40.883ZM468.095 28.48C471.905 26.7657 475.781 25.2476 479.707 23.9257L478.431 20.1348C474.381 21.4982 470.384 23.064 466.454 24.8323L468.095 28.48ZM491.709 20.5283C495.771 19.5901 499.868 18.8526 503.986 18.3155L503.469 14.3491C499.223 14.9029 494.997 15.6634 490.809 16.6309L491.709 20.5283ZM516.421 17.304C520.579 17.1681 524.743 17.2338 528.895 17.5009L529.152 13.5092C524.871 13.2338 520.578 13.166 516.29 13.3061L516.421 17.304ZM541.291 18.9044C545.39 19.5713 549.463 20.4378 553.492 21.5037L554.515 17.6367C550.36 16.5375 546.16 15.6439 541.934 14.9563L541.291 18.9044ZM565.381 25.2784C569.264 26.7235 573.089 28.3631 576.843 30.1969L578.599 26.6029C574.727 24.7113 570.781 23.0202 566.776 21.5296L565.381 25.2784ZM587.768 36.2154C591.283 38.3835 594.716 40.7371 598.051 43.2759L600.474 40.0931C597.034 37.4748 593.494 35.0473 589.868 32.8109L587.768 36.2154ZM607.6 51.3067C609.118 52.7142 610.61 54.1653 612.074 55.66L614.931 52.8608C613.422 51.3204 611.885 49.8247 610.32 48.3737L607.6 51.3067ZM612.074 55.66L616.312 59.986L619.169 57.1867L614.931 52.8608L612.074 55.66ZM624.788 68.6379L633.264 77.2898L636.121 74.4906L627.645 65.8387L624.788 68.6379ZM641.74 85.9418L650.216 94.5937L653.073 91.7945L644.597 83.1425L641.74 85.9418ZM658.692 103.246L667.168 111.898L670.025 109.098L661.549 100.446L658.692 103.246ZM675.644 120.55L684.12 129.201L686.978 126.402L678.501 117.75L675.644 120.55ZM692.596 137.853L701.072 146.505L703.93 143.706L695.453 135.054L692.596 137.853ZM709.548 155.157L713.786 159.483L716.644 156.684L712.406 152.358L709.548 155.157ZM713.786 159.483C715.285 161.013 716.814 162.5 718.371 163.944L721.09 161.01C719.58 159.61 718.097 158.168 716.644 156.684L713.786 159.483ZM728.157 172.175C731.57 174.774 735.087 177.189 738.694 179.419L740.797 176.016C737.3 173.855 733.89 171.513 730.581 168.993L728.157 172.175ZM749.883 185.604C753.724 187.489 757.642 189.18 761.622 190.674L763.028 186.929C759.168 185.48 755.369 183.841 751.646 182.013L749.883 185.604ZM773.795 194.583C777.918 195.69 782.087 196.596 786.289 197.298L786.949 193.353C782.874 192.672 778.83 191.794 774.833 190.72L773.795 194.583ZM798.986 198.796C803.236 199.09 807.502 199.179 811.769 199.061L811.659 195.063C807.521 195.177 803.384 195.09 799.263 194.805L798.986 198.796ZM824.518 198.091C828.737 197.563 832.94 196.83 837.114 195.89L836.235 191.988C832.188 192.899 828.112 193.61 824.022 194.122L824.518 198.091ZM849.435 192.477C853.462 191.148 857.444 189.617 861.368 187.883L859.751 184.224C855.946 185.906 852.085 187.39 848.181 188.679L849.435 192.477ZM872.8 182.154C874.65 181.112 876.483 180.022 878.297 178.882L876.169 175.495C874.41 176.6 872.632 177.658 870.838 178.668L872.8 182.154ZM878.297 178.882L883.446 175.648L881.318 172.261L876.169 175.495L878.297 178.882ZM893.743 169.178L904.041 162.709L901.913 159.322L891.615 165.791L893.743 169.178ZM914.339 156.24L924.637 149.77L922.509 146.383L912.211 152.853L914.339 156.24ZM934.934 143.301L945.232 136.832L943.104 133.445L932.807 139.914L934.934 143.301ZM955.53 130.363L965.828 123.893L963.7 120.506L953.402 126.976L955.53 130.363ZM976.125 117.424L986.423 110.955L984.295 107.568L973.998 114.037L976.125 117.424ZM996.721 104.485L1007.02 98.0162L1004.89 94.6291L994.593 101.098L996.721 104.485ZM1017.32 91.5469L1027.61 85.0776L1025.49 81.6905L1015.19 88.1598L1017.32 91.5469ZM1037.91 78.6083L1048.21 72.1391L1046.08 68.752L1035.78 75.2213L1037.91 78.6083ZM1058.51 65.6698L1063.66 62.4351L1061.53 59.048L1056.38 62.2827L1058.51 65.6698ZM1063.66 62.4351C1065.27 61.4244 1066.89 60.4536 1068.53 59.5225L1066.55 56.0455C1064.86 57.0054 1063.19 58.0062 1061.53 59.048L1063.66 62.4351ZM1078.62 54.3555C1082.09 52.7736 1085.59 51.357 1089.14 50.104L1087.81 46.3327C1084.15 47.625 1080.53 49.0861 1076.96 50.7175L1078.62 54.3555ZM1099.99 46.8044C1103.66 45.8629 1107.37 45.0897 1111.09 44.4831L1110.44 40.5352C1106.61 41.1609 1102.79 41.9584 1099 42.9295L1099.99 46.8044ZM1122.35 43.1563C1126.13 42.8804 1129.91 42.7729 1133.69 42.832L1133.75 38.8325C1129.86 38.7716 1125.96 38.8825 1122.06 39.1669L1122.35 43.1563ZM1145.01 43.5102C1148.77 43.9028 1152.52 44.4614 1156.23 45.1842L1156.99 41.2579C1153.16 40.5126 1149.31 39.9366 1145.43 39.5318L1145.01 43.5102ZM1167.26 47.8409C1170.88 48.8867 1174.47 50.094 1178 51.4609L1179.45 47.7303C1175.8 46.3207 1172.11 45.0758 1168.36 43.9974L1167.26 47.8409ZM1188.39 56.0181C1191.77 57.6842 1195.09 59.5051 1198.33 61.479L1200.41 58.0625C1197.07 56.0266 1193.64 54.1485 1190.16 52.4302L1188.39 56.0181ZM1207.74 67.8024C1210.77 70.0356 1213.71 72.4148 1216.56 74.9382L1219.21 71.9441C1216.27 69.3417 1213.24 66.8879 1210.12 64.5845L1207.74 67.8024ZM1224.71 82.8282C1226 84.1967 1227.27 85.5992 1228.51 87.0355L1231.54 84.4172C1230.26 82.9366 1228.95 81.4908 1227.61 80.0798L1224.71 82.8282ZM1228.51 87.0355L1232.5 91.6421L1235.53 89.0238L1231.54 84.4172L1228.51 87.0355ZM1240.48 100.855L1248.46 110.068L1251.48 107.45L1243.5 98.237L1240.48 100.855ZM1256.43 119.282L1264.41 128.495L1267.44 125.876L1259.46 116.663L1256.43 119.282ZM1272.39 137.708L1280.37 146.921L1283.39 144.303L1275.41 135.09L1272.39 137.708ZM1288.34 156.134L1296.32 165.348L1299.34 162.729L1291.37 153.516L1288.34 156.134ZM1304.3 174.561L1312.28 183.774L1315.3 181.156L1307.32 171.942L1304.3 174.561ZM1320.25 192.987L1328.23 202.2L1331.25 199.582L1323.28 190.369L1320.25 192.987ZM1336.21 211.413L1344.18 220.627L1347.21 218.008L1339.23 208.795L1336.21 211.413ZM1352.16 229.84L1360.14 239.053L1363.16 236.435L1355.19 227.221L1352.16 229.84ZM1368.12 248.266L1376.09 257.479L1379.12 254.861L1371.14 245.648L1368.12 248.266ZM1384.07 266.692L1392.05 275.906L1395.07 273.287L1387.09 264.074L1384.07 266.692Z" fill="#00c769"></path></svg>